
<svg viewBox="0 0 300 300" xmlns="http://www.w3.org/2000/svg">
  <circle cx="150" cy="150" r="145" fill="#fff"/>
  <path d="M150,150 L150,5 A145,145 0 0,1 283,75 Z" fill="#f00"/>
  <path d="M150,150 L283,75 A145,145 0 0,1 295,150 Z" fill="#0f0"/>
  <path d="M150,150 L295,150 A145,145 0 0,1 283,225 Z" fill="#00f"/>
  <path d="M150,150 L283,225 A145,145 0 0,1 150,295 Z" fill="#ff0"/>
  <path d="M150,150 L150,295 A145,145 0 0,1 17,225 Z" fill="#0ff"/>
  <path d="M150,150 L17,225 A145,145 0 0,1 5,150 Z" fill="#f0f"/>
  <path d="M150,150 L5,150 A145,145 0 0,1 17,75 Z" fill="#ffa500"/>
  <path d="M150,150 L17,75 A145,145 0 0,1 150,5 Z" fill="#ccc"/>
</svg>
